<svg width="375" height="812" viewBox="0 0 375 812" fill="none" xmlns="http://www.w3.org/2000/svg">
<g clip-path="url(#clip0_1_5177)">
<rect width="375" height="812" fill="#6A5AE0"/>
<path opacity="0.1" fill-rule="evenodd" clip-rule="evenodd" d="M-5.26562 814.562C61.4659 814.562 115.562 760.466 115.562 693.734C115.562 627.003 61.4659 572.906 -5.26562 572.906C-71.9972 572.906 -126.094 627.003 -126.094 693.734C-126.094 760.466 -71.9972 814.562 -5.26562 814.562Z" fill="#C4D0FB"/>
<path opacity="0.2" fill-rule="evenodd" clip-rule="evenodd" d="M-2 906C113.428 906 207 812.428 207 697C207 581.572 113.428 488 -2 488C-117.428 488 -211 581.572 -211 697C-211 812.428 -117.428 906 -2 906Z" stroke="#C4D0FB"/>
<path opacity="0.1" fill-rule="evenodd" clip-rule="evenodd" d="M396.734 260.562C463.466 260.562 517.562 206.466 517.562 139.734C517.562 73.0028 463.466 18.9062 396.734 18.9062C330.003 18.9062 275.906 73.0028 275.906 139.734C275.906 206.466 330.003 260.562 396.734 260.562Z" fill="#C4D0FB"/>
<path opacity="0.2" fill-rule="evenodd" clip-rule="evenodd" d="M400 352C515.428 352 609 258.428 609 143C609 27.5725 515.428 -66 400 -66C284.572 -66 191 27.5725 191 143C191 258.428 284.572 352 400 352Z" stroke="#C4D0FB"/>
<path opacity="0.1" fill-rule="evenodd" clip-rule="evenodd" d="M80 266C93.2548 266 104 255.255 104 242C104 228.745 93.2548 218 80 218C66.7452 218 56 228.745 56 242C56 255.255 66.7452 266 80 266Z" fill="#C4D0FB"/>
<path opacity="0.2" fill-rule="evenodd" clip-rule="evenodd" d="M287 612C292.523 612 297 607.523 297 602C297 596.477 292.523 592 287 592C281.477 592 277 596.477 277 602C277 607.523 281.477 612 287 612Z" fill="#C4D0FB"/>
<path d="M149.911 464.636C150.295 465.26 150.439 465.824 150.343 466.328C150.247 466.856 150.007 467.288 149.623 467.624C149.239 467.984 148.771 468.212 148.219 468.308C147.691 468.404 147.151 468.344 146.599 468.128C146.071 467.936 145.615 467.552 145.231 466.976L142.675 462.8C142.363 462.32 141.955 461.96 141.451 461.72C140.971 461.504 140.347 461.396 139.579 461.396L143.827 459.776C144.931 459.776 145.831 459.968 146.527 460.352C147.247 460.736 147.895 461.396 148.471 462.332L149.911 464.636ZM139.615 461.396C137.119 461.396 134.923 460.856 133.027 459.776C131.155 458.672 129.691 457.136 128.635 455.168C127.603 453.2 127.087 450.908 127.087 448.292C127.087 446.3 127.375 444.512 127.951 442.928C128.551 441.32 129.403 439.952 130.507 438.824C131.611 437.672 132.931 436.784 134.467 436.16C136.027 435.536 137.743 435.224 139.615 435.224C142.159 435.224 144.367 435.764 146.239 436.844C148.111 437.924 149.563 439.448 150.595 441.416C151.651 443.36 152.179 445.64 152.179 448.256C152.179 450.248 151.879 452.048 151.279 453.656C150.679 455.264 149.827 456.644 148.723 457.796C147.619 458.948 146.299 459.836 144.763 460.46C143.227 461.084 141.511 461.396 139.615 461.396ZM139.615 456.644C141.031 456.644 142.231 456.32 143.215 455.672C144.223 455 144.991 454.04 145.519 452.792C146.071 451.52 146.347 450.02 146.347 448.292C146.347 445.652 145.759 443.612 144.583 442.172C143.407 440.708 141.751 439.976 139.615 439.976C138.223 439.976 137.023 440.3 136.015 440.948C135.007 441.596 134.239 442.544 133.711 443.792C133.183 445.04 132.919 446.54 132.919 448.292C132.919 450.908 133.507 452.96 134.683 454.448C135.859 455.912 137.503 456.644 139.615 456.644ZM162.183 461.396C160.695 461.396 159.459 461.12 158.475 460.568C157.491 460.016 156.759 459.188 156.279 458.084C155.823 456.956 155.595 455.564 155.595 453.908V445.772C155.595 444.86 155.823 444.176 156.279 443.72C156.759 443.264 157.431 443.036 158.295 443.036C159.159 443.036 159.831 443.264 160.311 443.72C160.791 444.176 161.031 444.86 161.031 445.772V454.052C161.031 455.108 161.247 455.9 161.679 456.428C162.111 456.932 162.795 457.184 163.731 457.184C164.763 457.184 165.603 456.824 166.251 456.104C166.923 455.36 167.259 454.388 167.259 453.188V445.772C167.259 444.86 167.487 444.176 167.943 443.72C168.423 443.264 169.095 443.036 169.959 443.036C170.847 443.036 171.519 443.264 171.975 443.72C172.455 444.176 172.695 444.86 172.695 445.772V458.552C172.695 460.4 171.819 461.324 170.067 461.324C169.203 461.324 168.543 461.084 168.087 460.604C167.631 460.124 167.403 459.44 167.403 458.552V456.14L167.943 457.544C167.415 458.768 166.659 459.716 165.675 460.388C164.691 461.06 163.527 461.396 162.183 461.396ZM185.721 461.396C183.633 461.396 181.833 461.024 180.321 460.28C178.833 459.512 177.681 458.444 176.865 457.076C176.073 455.684 175.677 454.052 175.677 452.18C175.677 450.356 176.061 448.76 176.829 447.392C177.597 446 178.665 444.92 180.033 444.152C181.425 443.36 182.997 442.964 184.749 442.964C186.021 442.964 187.173 443.18 188.205 443.612C189.237 444.02 190.125 444.62 190.869 445.412C191.613 446.18 192.177 447.128 192.561 448.256C192.945 449.36 193.137 450.596 193.137 451.964C193.137 452.42 192.993 452.768 192.705 453.008C192.417 453.224 191.997 453.332 191.445 453.332H180.141V450.524H189.213L188.637 451.028C188.637 450.044 188.493 449.228 188.205 448.58C187.917 447.908 187.497 447.404 186.945 447.068C186.417 446.732 185.757 446.564 184.965 446.564C184.077 446.564 183.321 446.768 182.697 447.176C182.073 447.584 181.593 448.172 181.257 448.94C180.921 449.708 180.753 450.632 180.753 451.712V452C180.753 453.824 181.173 455.168 182.013 456.032C182.877 456.896 184.149 457.328 185.829 457.328C186.405 457.328 187.065 457.256 187.809 457.112C188.553 456.968 189.249 456.74 189.897 456.428C190.449 456.164 190.941 456.08 191.373 456.176C191.805 456.248 192.141 456.44 192.381 456.752C192.621 457.064 192.753 457.424 192.777 457.832C192.825 458.24 192.741 458.648 192.525 459.056C192.309 459.44 191.949 459.764 191.445 460.028C190.629 460.484 189.705 460.82 188.673 461.036C187.665 461.276 186.681 461.396 185.721 461.396ZM205.119 461.396C203.031 461.396 201.231 461.024 199.719 460.28C198.231 459.512 197.079 458.444 196.263 457.076C195.471 455.684 195.075 454.052 195.075 452.18C195.075 450.356 195.459 448.76 196.227 447.392C196.995 446 198.063 444.92 199.431 444.152C200.823 443.36 202.395 442.964 204.147 442.964C205.419 442.964 206.571 443.18 207.603 443.612C208.635 444.02 209.523 444.62 210.267 445.412C211.011 446.18 211.575 447.128 211.959 448.256C212.343 449.36 212.535 450.596 212.535 451.964C212.535 452.42 212.391 452.768 212.103 453.008C211.815 453.224 211.395 453.332 210.843 453.332H199.539V450.524H208.611L208.035 451.028C208.035 450.044 207.891 449.228 207.603 448.58C207.315 447.908 206.895 447.404 206.343 447.068C205.815 446.732 205.155 446.564 204.363 446.564C203.475 446.564 202.719 446.768 202.095 447.176C201.471 447.584 200.991 448.172 200.655 448.94C200.319 449.708 200.151 450.632 200.151 451.712V452C200.151 453.824 200.571 455.168 201.411 456.032C202.275 456.896 203.547 457.328 205.227 457.328C205.803 457.328 206.463 457.256 207.207 457.112C207.951 456.968 208.647 456.74 209.295 456.428C209.847 456.164 210.339 456.08 210.771 456.176C211.203 456.248 211.539 456.44 211.779 456.752C212.019 457.064 212.151 457.424 212.175 457.832C212.223 458.24 212.139 458.648 211.923 459.056C211.707 459.44 211.347 459.764 210.843 460.028C210.027 460.484 209.103 460.82 208.071 461.036C207.063 461.276 206.079 461.396 205.119 461.396ZM216.497 461C215.969 461 215.525 460.868 215.165 460.604C214.805 460.316 214.565 459.956 214.445 459.524C214.325 459.092 214.325 458.624 214.445 458.12C214.589 457.616 214.865 457.148 215.273 456.716L224.093 446.132V447.392H216.281C215.633 447.392 215.129 447.212 214.769 446.852C214.409 446.492 214.229 446 214.229 445.376C214.229 444.704 214.409 444.2 214.769 443.864C215.129 443.504 215.633 443.324 216.281 443.324H226.685C227.333 443.324 227.85 443.468 228.234 443.756C228.618 444.044 228.87 444.404 228.99 444.836C229.133 445.244 229.145 445.7 229.025 446.204C228.93 446.684 228.678 447.14 228.269 447.572L219.233 458.372V456.968H227.585C228.954 456.968 229.638 457.64 229.638 458.984C229.638 459.632 229.458 460.136 229.097 460.496C228.738 460.832 228.234 461 227.585 461H216.497ZM236.43 467.804C235.806 467.804 235.29 467.636 234.882 467.3C234.474 466.964 234.234 466.52 234.162 465.968C234.09 465.44 234.186 464.876 234.45 464.276L236.862 458.948V461.18L230.49 446.564C230.25 445.94 230.166 445.364 230.238 444.836C230.334 444.284 230.598 443.852 231.03 443.54C231.486 443.204 232.11 443.036 232.902 443.036C233.55 443.036 234.066 443.192 234.45 443.504C234.858 443.792 235.23 444.356 235.566 445.196L239.814 455.996H238.662L243.054 445.16C243.39 444.344 243.762 443.792 244.17 443.504C244.602 443.192 245.178 443.036 245.898 443.036C246.522 443.036 247.014 443.204 247.374 443.54C247.758 443.852 247.986 444.272 248.058 444.8C248.154 445.328 248.058 445.904 247.77 446.528L239.31 465.716C238.95 466.532 238.542 467.084 238.086 467.372C237.654 467.66 237.102 467.804 236.43 467.804Z" fill="white"/>
<mask id="mask0_1_5177" style="mask-type:alpha" maskUnits="userSpaceOnUse" x="137" y="308" width="100" height="100">
<rect x="137" y="308" width="100" height="100" rx="24" fill="#6A5AE0"/>
</mask>
<g mask="url(#mask0_1_5177)">
<path d="M240.216 380.248C240.216 394.271 234.6 407.721 224.605 417.637C214.609 427.554 201.052 433.125 186.916 433.125C186.187 433.125 185.472 433.111 184.743 433.084C180.849 432.926 176.985 432.35 173.216 431.365C173.945 430.996 174.661 430.628 175.376 430.232C175.39 430.232 175.403 430.218 175.431 430.205L175.445 430.191C176.201 429.782 176.944 429.372 177.673 428.949C177.852 428.84 178.031 428.745 178.209 428.649C178.897 428.24 179.585 427.83 180.259 427.394C180.458 427.287 180.651 427.168 180.837 427.039C181.359 426.725 181.882 426.384 182.391 426.043C182.748 425.811 183.12 425.565 183.464 425.333C183.986 424.978 184.495 424.624 185.004 424.255C185.348 424.023 185.664 423.791 185.995 423.532C186.435 423.232 186.861 422.904 187.288 422.577C187.673 422.304 188.044 422.017 188.415 421.717C188.938 421.321 189.447 420.912 189.956 420.475C190.176 420.312 190.396 420.134 190.616 419.943C191.166 419.493 191.703 419.029 192.239 418.551C192.528 418.306 192.817 418.06 193.106 417.787C193.422 417.514 193.725 417.241 194.027 416.955C194.605 416.436 195.169 415.89 195.733 415.345C195.809 415.283 195.878 415.215 195.939 415.14C196.49 414.621 197.026 414.075 197.549 413.53C197.92 413.175 198.264 412.806 198.594 412.438C198.993 412.042 199.364 411.633 199.736 411.224C199.956 410.992 200.162 410.76 200.355 410.528C200.85 409.982 201.331 409.422 201.813 408.863C202.06 408.576 202.308 408.276 202.542 407.976C202.899 407.566 203.243 407.157 203.56 406.734C203.89 406.338 204.206 405.929 204.509 405.52C204.797 405.165 205.073 404.796 205.334 404.442C205.692 403.978 206.035 403.514 206.366 403.036C206.696 402.558 207.053 402.081 207.383 401.59C207.547 401.375 207.699 401.152 207.837 400.921C208.305 400.239 208.759 399.543 209.199 398.847C209.763 397.987 210.299 397.114 210.808 396.227C211.042 395.845 211.262 395.463 211.482 395.081C213.266 391.96 214.856 388.733 216.242 385.419C216.448 384.955 216.64 384.491 216.819 384.014C217.039 383.509 217.232 382.99 217.424 382.472C217.589 382.049 217.755 381.612 217.906 381.175C218.085 380.698 218.25 380.207 218.415 379.729C219.02 377.982 219.57 376.222 220.052 374.434C220.175 373.984 220.299 373.547 220.409 373.097C220.492 372.811 220.561 372.538 220.629 372.251L220.959 370.859C221.4 368.962 221.771 367.052 222.087 365.114L222.294 363.804C222.321 363.6 222.349 363.409 222.376 363.204C222.459 362.685 222.527 362.167 222.583 361.648C222.679 360.87 222.775 360.093 222.844 359.315C222.871 359.11 222.885 358.905 222.899 358.701C222.954 358.169 222.995 357.623 223.036 357.091C223.078 356.558 223.105 355.999 223.133 355.453C223.16 355.071 223.174 354.689 223.188 354.293C223.243 353.038 223.27 351.782 223.27 350.527C223.27 349.886 223.27 349.258 223.243 348.63C223.243 348.303 223.243 347.989 223.229 347.661C223.188 346.529 223.133 345.41 223.05 344.291L223.05 344.25C223.036 343.977 223.023 343.704 222.995 343.431C222.94 342.681 222.871 341.944 222.803 341.193C222.803 341.17 222.798 341.146 222.789 341.125C224.642 342.799 226.375 344.601 227.974 346.515L228.016 346.556C228.023 346.563 228.028 346.573 228.029 346.583C235.926 356.051 240.237 367.959 240.216 380.248Z" fill="#FF8FA2"/>
<path d="M223.216 350.283C223.224 366.606 218.787 382.628 210.377 396.653C201.966 410.677 189.894 422.183 175.439 429.951C175.421 429.972 175.397 429.987 175.37 429.992L175.356 430.006C174.642 430.388 173.927 430.757 173.213 431.125C168.728 429.951 164.421 428.189 160.406 425.885C157.501 424.223 154.759 422.295 152.216 420.126C152.697 419.621 153.164 419.116 153.632 418.597L153.645 418.584C153.645 418.57 153.659 418.557 153.673 418.543L153.686 418.543C168.723 401.946 177.027 380.401 176.991 358.075C176.994 348.458 175.463 338.901 172.457 329.759L172.443 329.759C172.443 329.731 172.429 329.704 172.429 329.677L172.416 329.677C172.408 329.655 172.403 329.632 172.402 329.609C172.127 328.776 171.839 327.944 171.536 327.125L186.899 327.125C200.155 327.107 212.938 332.014 222.735 340.881C222.845 341.918 222.928 342.955 222.996 344.006C223.148 346.08 223.216 348.168 223.216 350.283Z" fill="#9087E5"/>
<path d="M177 357.95C177 358.864 176.986 359.779 176.959 360.679C176.945 361.266 176.918 361.839 176.891 362.426C176.782 364.773 176.577 367.107 176.277 369.427C176.209 370.027 176.127 370.614 176.032 371.201C175.937 371.924 175.814 372.633 175.691 373.357C175.582 374.039 175.459 374.708 175.323 375.39C175.296 375.554 175.255 375.718 175.228 375.881C175.119 376.441 174.996 377.014 174.873 377.573C174.233 380.482 173.446 383.356 172.515 386.184C172.337 386.744 172.146 387.29 171.956 387.822C171.939 387.888 171.916 387.951 171.887 388.013C171.697 388.572 171.506 389.105 171.301 389.65C171.247 389.814 171.179 389.992 171.11 390.169C170.892 390.756 170.66 391.329 170.429 391.902C170.17 392.557 169.897 393.212 169.611 393.854C169.324 394.522 169.024 395.191 168.724 395.86C168.438 396.474 168.138 397.088 167.852 397.688C167.538 398.33 167.225 398.957 166.898 399.571C166.57 400.185 166.243 400.813 165.902 401.427C165.562 402.041 165.221 402.655 164.88 403.256C164.539 403.856 164.171 404.47 163.803 405.071C163.435 405.671 163.067 406.258 162.685 406.845C161.935 408.018 161.158 409.178 160.354 410.311C159.549 411.444 158.704 412.563 157.859 413.668C156.577 415.292 155.25 416.875 153.878 418.417L153.864 418.417C153.85 418.431 153.85 418.431 153.85 418.444C153.85 418.448 153.849 418.451 153.846 418.454C153.844 418.456 153.84 418.458 153.837 418.458C153.373 418.977 152.896 419.495 152.419 420C150.271 418.152 148.274 416.135 146.447 413.968C146.434 413.942 146.415 413.919 146.393 413.9C138.375 404.382 133.985 392.329 134 379.88L134 327L171.588 327C171.887 327.819 172.174 328.638 172.433 329.47L172.446 329.484C172.448 329.507 172.452 329.53 172.46 329.552L172.474 329.552L172.474 329.593C172.473 329.6 172.474 329.608 172.476 329.615C172.478 329.622 172.482 329.628 172.487 329.634L172.501 329.634C172.513 329.686 172.531 329.736 172.555 329.784L172.719 330.316C173.183 331.763 173.605 333.223 173.987 334.71C174.26 335.706 174.505 336.73 174.737 337.753C175.159 339.609 175.528 341.506 175.841 343.43C175.909 343.894 175.991 344.345 176.046 344.809C176.209 345.941 176.359 347.074 176.482 348.22C176.536 348.643 176.577 349.08 176.605 349.503C176.686 350.294 176.741 351.099 176.795 351.891C176.932 353.897 177 355.917 177 357.95Z" fill="#C4D0FB"/>
</g>
<rect x="137" y="308" width="100" height="90" rx="24" fill="white"/>
<mask id="mask1_1_5177" style="mask-type:alpha" maskUnits="userSpaceOnUse" x="160" y="322" width="54" height="62">
<path fill-rule="evenodd" clip-rule="evenodd" d="M185.388 369.576C187.258 369.489 189.098 369.191 190.873 368.696L193.377 371.177C195.734 373.511 199.563 373.52 201.93 371.196C204.297 368.873 204.306 365.097 201.949 362.762L199.106 359.945C198.575 359.42 197.971 359.012 197.325 358.723C195.457 357.396 192.821 357.57 190.694 358.603C188.911 359.468 186.951 359.972 184.931 360.066C181.314 360.233 177.763 359.07 174.973 356.805C172.183 354.539 170.354 351.333 169.844 347.813C169.333 344.294 170.179 340.714 172.214 337.774C174.249 334.834 177.329 332.745 180.85 331.915C184.371 331.085 188.081 331.574 191.254 333.287C194.428 334.999 196.836 337.812 198.009 341.175C198.638 342.978 198.887 344.869 198.762 346.738C198.582 349.428 199.626 352.335 202.107 353.389C204.542 354.423 207.411 353.31 207.968 350.724C208.867 346.55 208.612 342.183 207.185 338.092C205.23 332.486 201.215 327.798 195.926 324.944C190.638 322.09 184.454 321.275 178.586 322.658C172.717 324.041 167.585 327.523 164.193 332.423C160.8 337.323 159.392 343.289 160.242 349.155C161.092 355.02 164.141 360.364 168.791 364.14C173.441 367.917 179.359 369.855 185.388 369.576ZM203.686 373.81C201.319 376.133 201.31 379.909 203.666 382.244C206.023 384.578 209.852 384.586 212.219 382.263C214.586 379.939 214.595 376.163 212.238 373.829C209.882 371.494 206.053 371.486 203.686 373.81Z" fill="#6A5AE0"/>
</mask>
<g mask="url(#mask1_1_5177)">
<path fill-rule="evenodd" clip-rule="evenodd" d="M192.816 403.32L241.83 354.928L231.232 344.809L175.154 400.681L192.816 403.32Z" fill="#6A5AE0"/>
<path fill-rule="evenodd" clip-rule="evenodd" d="M183.189 390.428L230.717 344.496L220.441 334.892L166.062 387.923L183.189 390.428Z" fill="#6A5AE0"/>
<path fill-rule="evenodd" clip-rule="evenodd" d="M168.893 388.472L224.744 333.247L214.955 322.923L159.104 378.148L168.893 388.472Z" fill="#6A5AE0"/>
<path fill-rule="evenodd" clip-rule="evenodd" d="M158.809 379.519L214.553 324.138L200.068 318.033L150.908 366.873L158.809 379.519Z" fill="#6A5AE0"/>
<path fill-rule="evenodd" clip-rule="evenodd" d="M150.908 367.619L201.42 318.033L174.36 320.69L150.908 345.925V367.619Z" fill="#6A5AE0"/>
</g>
</g>
<defs>
<clipPath id="clip0_1_5177">
<rect width="375" height="812" fill="white"/>
</clipPath>
</defs>
</svg>
